<svg width="64" height="64" viewBox="0 0 64 64" fill="none" xmlns="http://www.w3.org/2000/svg">
<rect width="64" height="64" fill="#0B0B0B"/>
<path d="M43.9743 16C46.1976 16 48 17.8024 48 20.0257V43.2338C48 45.8661 45.8661 48 43.2338 48C41.8262 48 40.4905 47.3778 39.585 46.3001L33.5855 39.1607C30.3561 35.3176 24.0887 37.6013 24.0887 42.6211V43.9556C24.0887 46.1893 22.278 48 20.0444 48C17.8107 48 16 46.1893 16 43.9556V20.839C16 18.1665 18.1665 16 20.839 16C22.2712 16 23.6298 16.6344 24.5493 17.7326L30.4724 24.807C33.6889 28.6487 39.9486 26.3741 39.9486 21.3637V20.0257C39.9486 17.8024 41.751 16 43.9743 16Z" fill="white"/>
</svg>
